<svg xmlns="http://www.w3.org/2000/svg" class="plt-container" width="1000.0" height="500.0">
    <style type="text/css">
        .plt-container {
        font-family: "Lucida Grande", sans-serif;
        cursor: crosshair;
        user-select: none;
        -webkit-user-select: none;
        -moz-user-select: none;
        -ms-user-select: none;
        }
        .plt-backdrop {
        fill: white;
        }
        .plt-transparent .plt-backdrop {
        visibility: hidden;
        }
        text {
        font-size: 12px;
        fill: #3d3d3d;
        }
        .plt-data-tooltip text {
        font-size: 12px;
        }
        .plt-axis-tooltip text {
        font-size: 10px;
        }
        .plt-axis line {
        shape-rendering: crispedges;
        }
        .plt-plot-title {

        font-size: 16.0px;
        font-weight: bold;
        }
        .plt-axis .tick text {

        font-size: 10.0px;
        }
        .plt-axis.small-tick-font .tick text {

        font-size: 8.0px;
        }
        .plt-axis-title text {

        font-size: 12.0px;
        }
        .plt_legend .legend-title text {

        font-size: 12.0px;
        font-weight: bold;
        }
        .plt_legend text {

        font-size: 10.0px;
        }

    </style>
    <rect class="plt-backdrop" width="100%" height="100%">
    </rect>
    <g class="plt-plot">
        <g class="plt-plot-title" transform="translate(500.0 12.0 ) ">
            <text text-anchor="middle" dy="0.35em">
                Exact PDF
            </text>
        </g>
        <g transform="translate(20.0 34.0 ) ">
            <g transform="translate(29.1 427.0 ) " class="plt-axis">
                <g class="tick" transform="translate(34.03998144712431 0.0 ) ">
                    <line stroke-width="1.0" stroke="rgb(0,0,0)" stroke-opacity="1.0" x2="0.0" y2="6.0">
                    </line>
                    <g transform="translate(0.0 9.0 ) ">
                        <text style="fill:transparent;" text-anchor="middle" dy="0.7em">
                            0.0
                        </text>
                    </g>
                </g>
                <g class="tick" transform="translate(121.3219851576994 0.0 ) ">
                    <line stroke-width="1.0" stroke="rgb(0,0,0)" stroke-opacity="1.0" x2="0.0" y2="6.0">
                    </line>
                    <g transform="translate(0.0 9.0 ) ">
                        <text style="fill:transparent;" text-anchor="middle" dy="0.7em">
                            0.1
                        </text>
                    </g>
                </g>
                <g class="tick" transform="translate(208.60398886827448 0.0 ) ">
                    <line stroke-width="1.0" stroke="rgb(0,0,0)" stroke-opacity="1.0" x2="0.0" y2="6.0">
                    </line>
                    <g transform="translate(0.0 9.0 ) ">
                        <text style="fill:transparent;" text-anchor="middle" dy="0.7em">
                            0.2
                        </text>
                    </g>
                </g>
                <g class="tick" transform="translate(295.8859925788496 0.0 ) ">
                    <line stroke-width="1.0" stroke="rgb(0,0,0)" stroke-opacity="1.0" x2="0.0" y2="6.0">
                    </line>
                    <g transform="translate(0.0 9.0 ) ">
                        <text style="fill:transparent;" text-anchor="middle" dy="0.7em">
                            0.3
                        </text>
                    </g>
                </g>
                <g class="tick" transform="translate(383.16799628942465 0.0 ) ">
                    <line stroke-width="1.0" stroke="rgb(0,0,0)" stroke-opacity="1.0" x2="0.0" y2="6.0">
                    </line>
                    <g transform="translate(0.0 9.0 ) ">
                        <text style="fill:transparent;" text-anchor="middle" dy="0.7em">
                            0.4
                        </text>
                    </g>
                </g>
                <g class="tick" transform="translate(470.4499999999997 0.0 ) ">
                    <line stroke-width="1.0" stroke="rgb(0,0,0)" stroke-opacity="1.0" x2="0.0" y2="6.0">
                    </line>
                    <g transform="translate(0.0 9.0 ) ">
                        <text style="fill:transparent;" text-anchor="middle" dy="0.7em">
                            0.5
                        </text>
                    </g>
                </g>
                <g class="tick" transform="translate(557.7320037105748 0.0 ) ">
                    <line stroke-width="1.0" stroke="rgb(0,0,0)" stroke-opacity="1.0" x2="0.0" y2="6.0">
                    </line>
                    <g transform="translate(0.0 9.0 ) ">
                        <text style="fill:transparent;" text-anchor="middle" dy="0.7em">
                            0.6
                        </text>
                    </g>
                </g>
                <g class="tick" transform="translate(645.0140074211498 0.0 ) ">
                    <line stroke-width="1.0" stroke="rgb(0,0,0)" stroke-opacity="1.0" x2="0.0" y2="6.0">
                    </line>
                    <g transform="translate(0.0 9.0 ) ">
                        <text style="fill:transparent;" text-anchor="middle" dy="0.7em">
                            0.7
                        </text>
                    </g>
                </g>
                <g class="tick" transform="translate(732.2960111317249 0.0 ) ">
                    <line stroke-width="1.0" stroke="rgb(0,0,0)" stroke-opacity="1.0" x2="0.0" y2="6.0">
                    </line>
                    <g transform="translate(0.0 9.0 ) ">
                        <text style="fill:transparent;" text-anchor="middle" dy="0.7em">
                            0.8
                        </text>
                    </g>
                </g>
                <g class="tick" transform="translate(819.5780148422999 0.0 ) ">
                    <line stroke-width="1.0" stroke="rgb(0,0,0)" stroke-opacity="1.0" x2="0.0" y2="6.0">
                    </line>
                    <g transform="translate(0.0 9.0 ) ">
                        <text style="fill:transparent;" text-anchor="middle" dy="0.7em">
                            0.9
                        </text>
                    </g>
                </g>
                <g class="tick" transform="translate(906.860018552875 0.0 ) ">
                    <line stroke-width="1.0" stroke="rgb(0,0,0)" stroke-opacity="1.0" x2="0.0" y2="6.0">
                    </line>
                    <g transform="translate(0.0 9.0 ) ">
                        <text style="fill:transparent;" text-anchor="middle" dy="0.7em">
                            1.0
                        </text>
                    </g>
                </g>
                <line x1="0.0" y1="0.0" x2="940.9" y2="0.0" stroke-width="1.0" stroke="rgb(0,0,0)" stroke-opacity="1.0">
                </line>
            </g>
            <g transform="translate(29.1 0.0 ) " class="plt-axis">
                <g class="tick" transform="translate(0.0 427.0 ) ">
                    <line stroke-width="1.0" stroke="rgb(0,0,0)" stroke-opacity="1.0" x2="-6.0" y2="0.0">
                    </line>
                    <g transform="translate(-9.0 0.0 ) ">
                        <text style="fill:transparent;" text-anchor="end" dy="0.35em">
                            0.0
                        </text>
                    </g>
                </g>
                <g class="tick" transform="translate(0.0 356.80326382294595 ) ">
                    <line stroke-width="1.0" stroke="rgb(0,0,0)" stroke-opacity="1.0" x2="-6.0" y2="0.0">
                    </line>
                    <g transform="translate(-9.0 0.0 ) ">
                        <text style="fill:transparent;" text-anchor="end" dy="0.35em">
                            0.5
                        </text>
                    </g>
                </g>
                <g class="tick" transform="translate(0.0 286.6065276458919 ) ">
                    <line stroke-width="1.0" stroke="rgb(0,0,0)" stroke-opacity="1.0" x2="-6.0" y2="0.0">
                    </line>
                    <g transform="translate(-9.0 0.0 ) ">
                        <text style="fill:transparent;" text-anchor="end" dy="0.35em">
                            1.0
                        </text>
                    </g>
                </g>
                <g class="tick" transform="translate(0.0 216.4097914688379 ) ">
                    <line stroke-width="1.0" stroke="rgb(0,0,0)" stroke-opacity="1.0" x2="-6.0" y2="0.0">
                    </line>
                    <g transform="translate(-9.0 0.0 ) ">
                        <text style="fill:transparent;" text-anchor="end" dy="0.35em">
                            1.5
                        </text>
                    </g>
                </g>
                <g class="tick" transform="translate(0.0 146.21305529178386 ) ">
                    <line stroke-width="1.0" stroke="rgb(0,0,0)" stroke-opacity="1.0" x2="-6.0" y2="0.0">
                    </line>
                    <g transform="translate(-9.0 0.0 ) ">
                        <text style="fill:transparent;" text-anchor="end" dy="0.35em">
                            2.0
                        </text>
                    </g>
                </g>
                <g class="tick" transform="translate(0.0 76.01631911472981 ) ">
                    <line stroke-width="1.0" stroke="rgb(0,0,0)" stroke-opacity="1.0" x2="-6.0" y2="0.0">
                    </line>
                    <g transform="translate(-9.0 0.0 ) ">
                        <text style="fill:transparent;" text-anchor="end" dy="0.35em">
                            2.5
                        </text>
                    </g>
                </g>
                <g class="tick" transform="translate(0.0 5.819582937675818 ) ">
                    <line stroke-width="1.0" stroke="rgb(0,0,0)" stroke-opacity="1.0" x2="-6.0" y2="0.0">
                    </line>
                    <g transform="translate(-9.0 0.0 ) ">
                        <text style="fill:transparent;" text-anchor="end" dy="0.35em">
                            3.0
                        </text>
                    </g>
                </g>
                <line x1="0.0" y1="0.0" x2="0.0" y2="427.0" stroke-width="1.0" stroke="rgb(0,0,0)" stroke-opacity="1.0">
                </line>
            </g>
            <g transform="translate(29.1 0.0 ) " clip-path="url(#LNBtKJ)" clip-bounds-jfx="[rect (0.0, 0.0), (940.9, 427.0)]">
                <defs>
                    <clipPath id="LNBtKJ">
                        <rect x="0.0" y="0.0" width="940.9" height="427.0">
                        </rect>
                    </clipPath>
                </defs>
                <g>
                    <path d="M42.768181818181816 322.12543076258356 L42.768181818181816 322.12543076258356 L51.49638218923933 279.76759833436734 L60.22458256029684 248.38357341590165 L68.95278293135434 223.06464785540447 L77.68098330241185 201.89845225332775 L86.40918367346936 183.89402185187868 L95.13738404452687 168.4531906341066 L103.86558441558438 155.17733428158965 L112.59378478664189 143.78120942187434 L121.32198515769937 134.0492446273512 L130.05018552875688 125.81123775295481 L138.7783858998144 118.92788217356997 L147.50658627087188 113.28167354517268 L156.23478664192942 108.77094782305988 L164.96298701298693 105.30583405983634 L173.69118738404444 102.80542703531626 L182.41938775510195 101.19576422189579 L191.14758812615946 100.4083489276332 L199.875788497217 100.37905384618199 L208.6039888682745 101.04729548728659 L217.33218923933202 102.35540529678536 L226.06038961038954 104.24814609631062 L234.78858998144705 106.67233757758999 L243.51679035250456 109.57656480503061 L252.24499072356207 112.91095073122489 L260.97319109461955 116.62697868296442 L269.7013914656771 120.67735431181097 L278.4295918367346 125.01589906655357 L287.1577922077921 129.59746912877847 L295.88599257884965 134.37789515549537 L304.61419294990714 139.3139392300099 L313.3423933209647 144.36326622844769 L322.07059369202216 149.48442743099417 L330.7987940630797 154.636854691518 L339.52699443413724 159.78086386102007 L348.2551948051947 164.8776664643325 L356.98339517625226 169.88938887409455 L365.71159554730974 174.7790984249896 L374.4397959183673 179.5108360748282 L383.16799628942476 184.04965535512324 L391.8961966604823 188.36166746826368 L400.62439703153984 192.41409248583898 L409.3525974025973 196.1753166866437 L418.08079777365487 199.61495614616072 L426.80899814471235 202.7039267540453 L435.5371985157699 205.4145208940414 L444.2653988868274 207.7204910731823 L452.9935992578849 209.5971408351751 L461.72179962894245 211.02142333739596 L470.4499999999999 211.97204801262407 L479.1782003710574 212.42959577611015 L487.90640074211495 212.3766432762382 L496.63460111317244 211.79789672330725 L505.36280148423 210.68033586611452 L514.0910018552875 209.01336872033957 L522.8192022263449 206.78899768640488 L531.5474025974024 204.0019977277121 L540.27560296846 200.65010731305122 L549.0038033395175 196.73423285970074 L557.7320037105751 192.25866744634934 L566.4602040816326 187.23132459759472 L575.1884044526901 181.66398797445373 L583.9166048237475 175.5725778381344 L592.6448051948051 168.97743518731318 L601.3730055658626 161.90362450238047 L610.1012059369201 154.3812560635996 L618.8294063079777 146.44582884389814 L627.5576066790352 138.13859501111386 L636.2858070500927 129.50694710895817 L645.0140074211502 120.60482902077382 L653.7422077922078 111.49317185535944 L662.4704081632652 102.24035592972717 L671.1986085343227 92.92270005966805 L679.9268089053803 83.62497940543159 L688.6550092764378 74.4409731566912 L697.3832096474953 65.4740433782755 L706.1114100185528 56.83774637590477 L714.8396103896104 48.656477979385954 L723.5678107606678 41.06615417940037 L732.2960111317253 34.21492859316055 L741.0242115027829 28.263948273835922 L749.7524118738404 23.388149418737044 L758.4806122448979 19.77709457182641 L767.2088126159555 17.635852957179168 L775.937012987013 17.18592562156067 L784.6652133580704 18.66621710631864 L793.3934137291279 22.33405541130992 L802.1216141001855 28.46626205659345 L810.849814471243 37.36027409112944 L819.5780148423005 49.33531994172574 L828.3062152133581 64.7336510399744 L837.0344155844156 83.92183120991234 L845.762615955473 107.29208584464283 L854.4908163265305 135.26371294614512 L863.2190166975881 168.28455814899576 L871.9472170686456 206.83255589572767 L880.6754174397031 251.41733897904768 L889.4036178107607 302.5819187141379 L898.1318181818182 360.90443805277414 L898.1318181818182 427.0 L889.4036178107607 427.0 L880.6754174397031 427.0 L871.9472170686456 427.0 L863.2190166975881 427.0 L854.4908163265305 427.0 L845.762615955473 427.0 L837.0344155844156 427.0 L828.3062152133581 427.0 L819.5780148423005 427.0 L810.849814471243 427.0 L802.1216141001855 427.0 L793.3934137291279 427.0 L784.6652133580704 427.0 L775.937012987013 427.0 L767.2088126159555 427.0 L758.4806122448979 427.0 L749.7524118738404 427.0 L741.0242115027829 427.0 L732.2960111317253 427.0 L723.5678107606678 427.0 L714.8396103896104 427.0 L706.1114100185528 427.0 L697.3832096474953 427.0 L688.6550092764378 427.0 L679.9268089053803 427.0 L671.1986085343227 427.0 L662.4704081632652 427.0 L653.7422077922078 427.0 L645.0140074211502 427.0 L636.2858070500927 427.0 L627.5576066790352 427.0 L618.8294063079777 427.0 L610.1012059369201 427.0 L601.3730055658626 427.0 L592.6448051948051 427.0 L583.9166048237475 427.0 L575.1884044526901 427.0 L566.4602040816326 427.0 L557.7320037105751 427.0 L549.0038033395175 427.0 L540.27560296846 427.0 L531.5474025974024 427.0 L522.8192022263449 427.0 L514.0910018552875 427.0 L505.36280148423 427.0 L496.63460111317244 427.0 L487.90640074211495 427.0 L479.1782003710574 427.0 L470.4499999999999 427.0 L461.72179962894245 427.0 L452.9935992578849 427.0 L444.2653988868274 427.0 L435.5371985157699 427.0 L426.80899814471235 427.0 L418.08079777365487 427.0 L409.3525974025973 427.0 L400.62439703153984 427.0 L391.8961966604823 427.0 L383.16799628942476 427.0 L374.4397959183673 427.0 L365.71159554730974 427.0 L356.98339517625226 427.0 L348.2551948051947 427.0 L339.52699443413724 427.0 L330.7987940630797 427.0 L322.07059369202216 427.0 L313.3423933209647 427.0 L304.61419294990714 427.0 L295.88599257884965 427.0 L287.1577922077921 427.0 L278.4295918367346 427.0 L269.7013914656771 427.0 L260.97319109461955 427.0 L252.24499072356207 427.0 L243.51679035250456 427.0 L234.78858998144705 427.0 L226.06038961038954 427.0 L217.33218923933202 427.0 L208.6039888682745 427.0 L199.875788497217 427.0 L191.14758812615946 427.0 L182.41938775510195 427.0 L173.69118738404444 427.0 L164.96298701298693 427.0 L156.23478664192942 427.0 L147.50658627087188 427.0 L138.7783858998144 427.0 L130.05018552875688 427.0 L121.32198515769937 427.0 L112.59378478664189 427.0 L103.86558441558438 427.0 L95.13738404452687 427.0 L86.40918367346936 427.0 L77.68098330241185 427.0 L68.95278293135434 427.0 L60.22458256029684 427.0 L51.49638218923933 427.0 L42.768181818181816 427.0 Z" fill="rgb(210,255,210)" stroke-width="1.0" fill-opacity="1.0">
                    </path>
                </g>
                <g>
                    <path d="M42.768181818181816 322.12543076258356 L42.768181818181816 322.12543076258356 L51.49638218923933 279.76759833436734 L60.22458256029684 248.38357341590165 L68.95278293135434 223.06464785540447 L77.68098330241185 201.89845225332775 L86.40918367346936 183.89402185187868 L95.13738404452687 168.4531906341066 L103.86558441558438 155.17733428158965 L112.59378478664189 143.78120942187434 L121.32198515769937 134.0492446273512 L130.05018552875688 125.81123775295481 L138.7783858998144 118.92788217356997 L147.50658627087188 113.28167354517268 L156.23478664192942 108.77094782305988 L164.96298701298693 105.30583405983634 L173.69118738404444 102.80542703531626 L182.41938775510195 101.19576422189579 L191.14758812615946 100.4083489276332 L199.875788497217 100.37905384618199 L208.6039888682745 101.04729548728659 L217.33218923933202 102.35540529678536 L226.06038961038954 104.24814609631062 L234.78858998144705 106.67233757758999 L243.51679035250456 109.57656480503061 L252.24499072356207 112.91095073122489 L260.97319109461955 116.62697868296442 L269.7013914656771 120.67735431181097 L278.4295918367346 125.01589906655357 L287.1577922077921 129.59746912877847 L295.88599257884965 134.37789515549537 L304.61419294990714 139.3139392300099 L313.3423933209647 144.36326622844769 L322.07059369202216 149.48442743099417 L330.7987940630797 154.636854691518 L339.52699443413724 159.78086386102007 L348.2551948051947 164.8776664643325 L356.98339517625226 169.88938887409455 L365.71159554730974 174.7790984249896 L374.4397959183673 179.5108360748282 L383.16799628942476 184.04965535512324 L391.8961966604823 188.36166746826368 L400.62439703153984 192.41409248583898 L409.3525974025973 196.1753166866437 L418.08079777365487 199.61495614616072 L426.80899814471235 202.7039267540453 L435.5371985157699 205.4145208940414 L444.2653988868274 207.7204910731823 L452.9935992578849 209.5971408351751 L461.72179962894245 211.02142333739596 L470.4499999999999 211.97204801262407 L479.1782003710574 212.42959577611015 L487.90640074211495 212.3766432762382 L496.63460111317244 211.79789672330725 L505.36280148423 210.68033586611452 L514.0910018552875 209.01336872033957 L522.8192022263449 206.78899768640488 L531.5474025974024 204.0019977277121 L540.27560296846 200.65010731305122 L549.0038033395175 196.73423285970074 L557.7320037105751 192.25866744634934 L566.4602040816326 187.23132459759472 L575.1884044526901 181.66398797445373 L583.9166048237475 175.5725778381344 L592.6448051948051 168.97743518731318 L601.3730055658626 161.90362450238047 L610.1012059369201 154.3812560635996 L618.8294063079777 146.44582884389814 L627.5576066790352 138.13859501111386 L636.2858070500927 129.50694710895817 L645.0140074211502 120.60482902077382 L653.7422077922078 111.49317185535944 L662.4704081632652 102.24035592972717 L671.1986085343227 92.92270005966805 L679.9268089053803 83.62497940543159 L688.6550092764378 74.4409731566912 L697.3832096474953 65.4740433782755 L706.1114100185528 56.83774637590477 L714.8396103896104 48.656477979385954 L723.5678107606678 41.06615417940037 L732.2960111317253 34.21492859316055 L741.0242115027829 28.263948273835922 L749.7524118738404 23.388149418737044 L758.4806122448979 19.77709457182641 L767.2088126159555 17.635852957179168 L775.937012987013 17.18592562156067 L784.6652133580704 18.66621710631864 L793.3934137291279 22.33405541130992 L802.1216141001855 28.46626205659345 L810.849814471243 37.36027409112944 L819.5780148423005 49.33531994172574 L828.3062152133581 64.7336510399744 L837.0344155844156 83.92183120991234 L845.762615955473 107.29208584464283 L854.4908163265305 135.26371294614512 L863.2190166975881 168.28455814899576 L871.9472170686456 206.83255589572767 L880.6754174397031 251.41733897904768 L889.4036178107607 302.5819187141379 L898.1318181818182 360.90443805277414 " fill="none" stroke-width="4.0" stroke="rgb(0,128,0)" stroke-opacity="1.0">
                    </path>
                </g>
            </g>
        </g>
        <g class="plt-axis">
            <g transform="translate(4.0 247.5 ) rotate(-90.0 ) " class="plt-axis-title">
                <text text-anchor="middle" dy="0.7em">
                    density
                </text>
            </g>
        </g>
        <g class="plt-axis">
            <g transform="translate(519.55 496.0 ) " class="plt-axis-title">
                <text text-anchor="middle">
                    x
                </text>
            </g>
        </g>
    </g>
</svg>