<svg xmlns="http://www.w3.org/2000/svg" class="plt-container" width="1000.0" height="500.0">
    <style type="text/css">
        .plt-container {
        font-family: "Lucida Grande", sans-serif;
        cursor: crosshair;
        user-select: none;
        -webkit-user-select: none;
        -moz-user-select: none;
        -ms-user-select: none;
        }
        .plt-backdrop {
        fill: white;
        }
        .plt-transparent .plt-backdrop {
        visibility: hidden;
        }
        text {
        font-size: 12px;
        fill: #3d3d3d;
        }
        .plt-data-tooltip text {
        font-size: 12px;
        }
        .plt-axis-tooltip text {
        font-size: 10px;
        }
        .plt-axis line {
        shape-rendering: crispedges;
        }
        .plt-plot-title {

        font-size: 16.0px;
        font-weight: bold;
        }
        .plt-axis .tick text {

        font-size: 10.0px;
        }
        .plt-axis.small-tick-font .tick text {

        font-size: 8.0px;
        }
        .plt-axis-title text {

        font-size: 12.0px;
        }
        .plt_legend .legend-title text {

        font-size: 12.0px;
        font-weight: bold;
        }
        .plt_legend text {

        font-size: 10.0px;
        }

    </style>
    <rect class="plt-backdrop" width="100%" height="100%">
    </rect>
    <g class="plt-plot">
        <g transform="translate(20.0 10.0 ) ">
            <g transform="translate(29.1 451.0 ) " class="plt-axis">
                <g class="tick" transform="translate(42.768181818181816 0.0 ) ">
                    <line stroke-width="1.0" stroke="rgb(0,0,0)" stroke-opacity="1.0" x2="0.0" y2="6.0">
                    </line>
                    <g transform="translate(0.0 9.0 ) ">
                        <text style="fill:transparent;" text-anchor="middle" dy="0.7em">
                            0.0
                        </text>
                    </g>
                </g>
                <g class="tick" transform="translate(128.30454545454546 0.0 ) ">
                    <line stroke-width="1.0" stroke="rgb(0,0,0)" stroke-opacity="1.0" x2="0.0" y2="6.0">
                    </line>
                    <g transform="translate(0.0 9.0 ) ">
                        <text style="fill:transparent;" text-anchor="middle" dy="0.7em">
                            0.1
                        </text>
                    </g>
                </g>
                <g class="tick" transform="translate(213.84090909090907 0.0 ) ">
                    <line stroke-width="1.0" stroke="rgb(0,0,0)" stroke-opacity="1.0" x2="0.0" y2="6.0">
                    </line>
                    <g transform="translate(0.0 9.0 ) ">
                        <text style="fill:transparent;" text-anchor="middle" dy="0.7em">
                            0.2
                        </text>
                    </g>
                </g>
                <g class="tick" transform="translate(299.3772727272727 0.0 ) ">
                    <line stroke-width="1.0" stroke="rgb(0,0,0)" stroke-opacity="1.0" x2="0.0" y2="6.0">
                    </line>
                    <g transform="translate(0.0 9.0 ) ">
                        <text style="fill:transparent;" text-anchor="middle" dy="0.7em">
                            0.3
                        </text>
                    </g>
                </g>
                <g class="tick" transform="translate(384.91363636363633 0.0 ) ">
                    <line stroke-width="1.0" stroke="rgb(0,0,0)" stroke-opacity="1.0" x2="0.0" y2="6.0">
                    </line>
                    <g transform="translate(0.0 9.0 ) ">
                        <text style="fill:transparent;" text-anchor="middle" dy="0.7em">
                            0.4
                        </text>
                    </g>
                </g>
                <g class="tick" transform="translate(470.44999999999993 0.0 ) ">
                    <line stroke-width="1.0" stroke="rgb(0,0,0)" stroke-opacity="1.0" x2="0.0" y2="6.0">
                    </line>
                    <g transform="translate(0.0 9.0 ) ">
                        <text style="fill:transparent;" text-anchor="middle" dy="0.7em">
                            0.5
                        </text>
                    </g>
                </g>
                <g class="tick" transform="translate(555.9863636363635 0.0 ) ">
                    <line stroke-width="1.0" stroke="rgb(0,0,0)" stroke-opacity="1.0" x2="0.0" y2="6.0">
                    </line>
                    <g transform="translate(0.0 9.0 ) ">
                        <text style="fill:transparent;" text-anchor="middle" dy="0.7em">
                            0.6
                        </text>
                    </g>
                </g>
                <g class="tick" transform="translate(641.5227272727271 0.0 ) ">
                    <line stroke-width="1.0" stroke="rgb(0,0,0)" stroke-opacity="1.0" x2="0.0" y2="6.0">
                    </line>
                    <g transform="translate(0.0 9.0 ) ">
                        <text style="fill:transparent;" text-anchor="middle" dy="0.7em">
                            0.7
                        </text>
                    </g>
                </g>
                <g class="tick" transform="translate(727.0590909090907 0.0 ) ">
                    <line stroke-width="1.0" stroke="rgb(0,0,0)" stroke-opacity="1.0" x2="0.0" y2="6.0">
                    </line>
                    <g transform="translate(0.0 9.0 ) ">
                        <text style="fill:transparent;" text-anchor="middle" dy="0.7em">
                            0.8
                        </text>
                    </g>
                </g>
                <g class="tick" transform="translate(812.5954545454543 0.0 ) ">
                    <line stroke-width="1.0" stroke="rgb(0,0,0)" stroke-opacity="1.0" x2="0.0" y2="6.0">
                    </line>
                    <g transform="translate(0.0 9.0 ) ">
                        <text style="fill:transparent;" text-anchor="middle" dy="0.7em">
                            0.9
                        </text>
                    </g>
                </g>
                <g class="tick" transform="translate(898.131818181818 0.0 ) ">
                    <line stroke-width="1.0" stroke="rgb(0,0,0)" stroke-opacity="1.0" x2="0.0" y2="6.0">
                    </line>
                    <g transform="translate(0.0 9.0 ) ">
                        <text style="fill:transparent;" text-anchor="middle" dy="0.7em">
                            1.0
                        </text>
                    </g>
                </g>
                <line x1="0.0" y1="0.0" x2="940.9" y2="0.0" stroke-width="1.0" stroke="rgb(0,0,0)" stroke-opacity="1.0">
                </line>
            </g>
            <g transform="translate(29.1 0.0 ) " class="plt-axis">
                <g class="tick" transform="translate(0.0 451.0 ) ">
                    <line stroke-width="1.0" stroke="rgb(0,0,0)" stroke-opacity="1.0" x2="-6.0" y2="0.0">
                    </line>
                    <g transform="translate(-9.0 0.0 ) ">
                        <text style="fill:transparent;" text-anchor="end" dy="0.35em">
                            0.0
                        </text>
                    </g>
                </g>
                <g class="tick" transform="translate(0.0 420.6835671303607 ) ">
                    <line stroke-width="1.0" stroke="rgb(0,0,0)" stroke-opacity="1.0" x2="-6.0" y2="0.0">
                    </line>
                    <g transform="translate(-9.0 0.0 ) ">
                        <text style="fill:transparent;" text-anchor="end" dy="0.35em">
                            0.1
                        </text>
                    </g>
                </g>
                <g class="tick" transform="translate(0.0 390.36713426072146 ) ">
                    <line stroke-width="1.0" stroke="rgb(0,0,0)" stroke-opacity="1.0" x2="-6.0" y2="0.0">
                    </line>
                    <g transform="translate(-9.0 0.0 ) ">
                        <text style="fill:transparent;" text-anchor="end" dy="0.35em">
                            0.2
                        </text>
                    </g>
                </g>
                <g class="tick" transform="translate(0.0 360.05070139108216 ) ">
                    <line stroke-width="1.0" stroke="rgb(0,0,0)" stroke-opacity="1.0" x2="-6.0" y2="0.0">
                    </line>
                    <g transform="translate(-9.0 0.0 ) ">
                        <text style="fill:transparent;" text-anchor="end" dy="0.35em">
                            0.3
                        </text>
                    </g>
                </g>
                <g class="tick" transform="translate(0.0 329.7342685214429 ) ">
                    <line stroke-width="1.0" stroke="rgb(0,0,0)" stroke-opacity="1.0" x2="-6.0" y2="0.0">
                    </line>
                    <g transform="translate(-9.0 0.0 ) ">
                        <text style="fill:transparent;" text-anchor="end" dy="0.35em">
                            0.4
                        </text>
                    </g>
                </g>
                <g class="tick" transform="translate(0.0 299.4178356518036 ) ">
                    <line stroke-width="1.0" stroke="rgb(0,0,0)" stroke-opacity="1.0" x2="-6.0" y2="0.0">
                    </line>
                    <g transform="translate(-9.0 0.0 ) ">
                        <text style="fill:transparent;" text-anchor="end" dy="0.35em">
                            0.5
                        </text>
                    </g>
                </g>
                <g class="tick" transform="translate(0.0 269.1014027821643 ) ">
                    <line stroke-width="1.0" stroke="rgb(0,0,0)" stroke-opacity="1.0" x2="-6.0" y2="0.0">
                    </line>
                    <g transform="translate(-9.0 0.0 ) ">
                        <text style="fill:transparent;" text-anchor="end" dy="0.35em">
                            0.6
                        </text>
                    </g>
                </g>
                <g class="tick" transform="translate(0.0 238.78496991252507 ) ">
                    <line stroke-width="1.0" stroke="rgb(0,0,0)" stroke-opacity="1.0" x2="-6.0" y2="0.0">
                    </line>
                    <g transform="translate(-9.0 0.0 ) ">
                        <text style="fill:transparent;" text-anchor="end" dy="0.35em">
                            0.7
                        </text>
                    </g>
                </g>
                <g class="tick" transform="translate(0.0 208.4685370428858 ) ">
                    <line stroke-width="1.0" stroke="rgb(0,0,0)" stroke-opacity="1.0" x2="-6.0" y2="0.0">
                    </line>
                    <g transform="translate(-9.0 0.0 ) ">
                        <text style="fill:transparent;" text-anchor="end" dy="0.35em">
                            0.8
                        </text>
                    </g>
                </g>
                <g class="tick" transform="translate(0.0 178.15210417324653 ) ">
                    <line stroke-width="1.0" stroke="rgb(0,0,0)" stroke-opacity="1.0" x2="-6.0" y2="0.0">
                    </line>
                    <g transform="translate(-9.0 0.0 ) ">
                        <text style="fill:transparent;" text-anchor="end" dy="0.35em">
                            0.9
                        </text>
                    </g>
                </g>
                <g class="tick" transform="translate(0.0 147.83567130360728 ) ">
                    <line stroke-width="1.0" stroke="rgb(0,0,0)" stroke-opacity="1.0" x2="-6.0" y2="0.0">
                    </line>
                    <g transform="translate(-9.0 0.0 ) ">
                        <text style="fill:transparent;" text-anchor="end" dy="0.35em">
                            1.0
                        </text>
                    </g>
                </g>
                <g class="tick" transform="translate(0.0 117.51923843396798 ) ">
                    <line stroke-width="1.0" stroke="rgb(0,0,0)" stroke-opacity="1.0" x2="-6.0" y2="0.0">
                    </line>
                    <g transform="translate(-9.0 0.0 ) ">
                        <text style="fill:transparent;" text-anchor="end" dy="0.35em">
                            1.1
                        </text>
                    </g>
                </g>
                <g class="tick" transform="translate(0.0 87.20280556432868 ) ">
                    <line stroke-width="1.0" stroke="rgb(0,0,0)" stroke-opacity="1.0" x2="-6.0" y2="0.0">
                    </line>
                    <g transform="translate(-9.0 0.0 ) ">
                        <text style="fill:transparent;" text-anchor="end" dy="0.35em">
                            1.2
                        </text>
                    </g>
                </g>
                <g class="tick" transform="translate(0.0 56.886372694689385 ) ">
                    <line stroke-width="1.0" stroke="rgb(0,0,0)" stroke-opacity="1.0" x2="-6.0" y2="0.0">
                    </line>
                    <g transform="translate(-9.0 0.0 ) ">
                        <text style="fill:transparent;" text-anchor="end" dy="0.35em">
                            1.3
                        </text>
                    </g>
                </g>
                <g class="tick" transform="translate(0.0 26.569939825050085 ) ">
                    <line stroke-width="1.0" stroke="rgb(0,0,0)" stroke-opacity="1.0" x2="-6.0" y2="0.0">
                    </line>
                    <g transform="translate(-9.0 0.0 ) ">
                        <text style="fill:transparent;" text-anchor="end" dy="0.35em">
                            1.4
                        </text>
                    </g>
                </g>
                <line x1="0.0" y1="0.0" x2="0.0" y2="451.0" stroke-width="1.0" stroke="rgb(0,0,0)" stroke-opacity="1.0">
                </line>
            </g>
            <g transform="translate(29.1 0.0 ) " clip-path="url(#UeCrxz)" clip-bounds-jfx="[rect (0.0, 0.0), (940.9, 451.0)]">
                <defs>
                    <clipPath id="UeCrxz">
                        <rect x="0.0" y="0.0" width="940.9" height="451.0">
                        </rect>
                    </clipPath>
                </defs>
                <g>
                    <path d="M42.768181818181816 351.5415813541139 L42.768181818181816 351.5415813541139 L44.44208325920654 347.70579291642036 L46.11598470023127 343.8227311079718 L47.789886141256 339.8950411899087 L49.46378758228073 335.92534803617673 L51.137689023305455 331.9162564457887 L52.81159046433019 327.8703530091543 L54.48549190535491 323.7902093479664 L56.159393346379645 319.67838651894374 L57.83329478740437 315.53744034841316 L59.507196228429095 311.3699274478331 L61.18109766945383 307.17841165023117 L62.85499911047856 302.9654706043974 L64.52890055150328 298.7337022671283 L66.20280199252801 294.48573104442346 L67.87670343355273 290.22421334874906 L69.55060487457747 285.95184236175044 L71.2245063156022 281.67135181889705 L72.89840775662692 277.38551866357216 L74.57230919765166 273.09716445238416 L76.24621063867639 268.8091554298568 L77.92011207970111 264.5244012281446 L79.59401352072584 260.245852184782 L81.26791496175056 255.97649530811938 L82.94181640277529 251.71934895465185 L84.61571784380003 247.47745631413326 L86.28961928482475 243.25387782670262 L87.96352072584949 239.05168268010505 L89.63742216687422 234.873939554497 L91.31132360789894 230.72370679626755 L92.98522504892367 226.60402221142795 L94.65912648994839 222.5178926725057 L96.33302793097312 218.4682837312016 L98.00692937199786 214.4581094224824 L99.68083081302258 210.49022243429758 L101.35473225404732 206.5674048018921 L103.02863369507205 202.69235926646797 L104.70253513609677 198.86770141614826 L106.3764365771215 195.0959527030925 L108.05033801814622 191.37953440507647 L109.72423945917095 187.72076257341513 L111.39814090019568 184.12184398303214 L113.07204234122041 180.5848730749114 L114.74594378224513 177.11182985673616 L116.41984522326986 173.704578705767 L118.0937466642946 170.36486799774764 L119.76764810531932 167.0943304691953 L121.44154954634405 163.89448420646704 L123.11545098736877 160.76673414506718 L124.78935242839351 157.71237395584353 L126.46325386941824 154.73258819181416 L128.13715531044295 151.82845457005095 L129.81105675146767 149.00094626678464 L131.48495819249243 146.25093411147708 L133.15885963351715 143.57918857535537 L134.83276107454188 140.9863814628352 L136.5066625155666 138.47308722918746 L138.18056395659133 136.0397838641797 L139.85446539761608 133.68685329955912 L141.5283668386408 131.41458131707265 L143.20226827966553 129.22315695266718 L144.87616972069026 127.11267141189961 L146.55007116171498 125.08311652972242 L148.2239726027397 123.13438282606842 L149.89787404376443 121.26625722455987 L151.57177548478916 119.47842051660251 L153.24567692581388 117.77044466606407 L154.9195783668386 116.14179006023801 L156.59347980786333 114.59180282131229 L158.26738124888806 113.11971229833426 L159.9412826899128 111.72462886291072 L161.61518413093754 110.4055421325566 L163.28908557196226 109.1613197437344 L164.96298701298699 107.99070679184126 L166.6368884540117 106.89232604867351 L168.31078989503646 105.86467905836605 L169.9846913360612 104.90614820143736 L171.65859277708591 104.01499980302214 L173.33249421811064 103.18938834624572 L175.00639565913536 102.42736183526904 L176.6802971001601 101.72686833412581 L178.35419854118481 101.08576368961894 L180.02809998220954 100.50182042652017 L181.70200142323426 99.97273778393969 L183.375902864259 99.49615284247534 L185.04980430528371 99.06965267195795 L186.72370574630844 98.69078741147513 L188.39760718733316 98.35708417542025 L190.0715086283579 98.06606166294006 L191.74541006938267 97.81524533319441 L193.4193115104074 97.60218299546989 L195.09321295143212 97.42446065195298 L196.76711439245685 97.27971842172843 L198.44101583348157 97.16566636793357 L200.1149172745063 97.08010004521077 L201.78881871553102 97.0209155831605 L203.46272015655575 96.98612412217244 L205.13662159758047 96.9738654215439 L206.8105230386052 96.98242046597954 L208.48442447962992 97.01022290546132 L210.15832592065465 97.05586917490018 L211.83222736167937 97.11812715369996 L213.5061288027041 97.1959432417367 L215.18003024372882 97.28844774617266 L216.85393168475355 97.39495849372088 L218.52783312577827 97.5149826044867 L220.20173456680305 97.64821638656429 L221.87563600782778 97.79454333358626 L223.5495374488525 97.95403023271615 L225.22343888987723 98.126921413952 L226.89734033090195 98.31363119668964 L228.57124177192668 98.51473461219143 L230.2451432129514 98.7309565039335 L231.91904465397613 98.96315912848587 L233.59294609500085 99.21232839893156 L235.26684753602558 99.47955893070707 L236.9407489770503 99.76603806395502 L238.61465041807503 100.0730290492761 L240.28855185909975 100.40185359340762 L241.96245330012448 100.75387396726711 L243.6363547411492 101.13047488305375 L245.31025618217393 101.53304534672299 L246.98415762319866 101.96296069005132 L248.65805906422344 102.42156498046552 L250.33196050524816 102.91015399850716 L252.0058619462729 103.42995896143896 L253.6797633872976 103.98213115827366 L255.35366482832234 104.56772764576914 L257.02756626934706 105.1876981374516 L258.7014677103718 105.84287319937454 L260.3753691513965 106.53395384618716 L262.04927059242124 107.26150261088293 L263.72317203344596 108.0259361410616 L265.3970734744707 108.82751935372693 L267.0709749154954 109.66636116108674 L268.74487635652014 110.54241175991177 L270.41877779754486 111.45546145966159 L272.0926792385696 112.40514100698914 L273.7665806795943 113.39092334969348 L275.44048212061904 114.41212676896913 L277.1143835616438 115.46791929766562 L278.78828500266854 116.55732433204133 L280.46218644369327 117.67922733653745 L282.136087884718 118.83238353529111 L283.8099893257427 120.01542647950146 L285.48389076676744 121.22687737750374 L287.15779220779217 122.46515507300876 L288.8316936488169 123.72858655778634 L290.5055950898416 125.01541790651135 L292.17949653086634 126.32382552435354 L293.85339797189107 127.65192760154974 L295.5272994129158 128.99779567367216 L297.2012008539405 130.3594661912535 L298.87510229496525 131.73495200785413 L300.54900373598997 133.12225370157734 L302.2229051770147 134.5193706505354 L303.8968066180394 135.92431178935527 L305.57070805906415 137.33510597908383 L307.24460950008887 138.74981192964526 L308.9185109411136 140.16652761900104 L310.5924123821383 141.58339915978382 L312.2663138231631 142.9986290691421 L313.9402152641878 144.41048390355917 L315.61411670521255 145.81730122567484 L317.2880181462373 147.21749587551398 L318.961919587262 148.6095655240606 L320.6358210282867 149.99209549201396 L322.30972246931145 151.36376282235767 L323.9836239103362 152.72333960000418 L325.6575253513609 154.06969551740667 L327.3314267923856 155.40179968996267 L329.00532823341035 156.71872173009524 L330.6792296744351 158.01963209399247 L332.3531311154598 159.30380171984126 L334.0270325564845 160.57060098087436 L335.70093399750925 161.8194979815417 L337.374835438534 163.05005622862262 L339.0487368795587 164.26193171404395 L340.7226383205835 165.45486944878138 L342.3965397616082 166.62869949128793 L344.07044120263294 167.78333251633615 L345.74434264365766 168.91875497269768 L347.4182440846824 170.0350238801896 L349.0921455257071 171.13226131790526 L350.76604696673184 172.2106486568669 L352.43994840775656 173.2704205905847 L354.1138498487813 174.3118590175564 L355.787751289806 175.33528682924037 L357.46165273083074 176.34106165657766 L359.13555417185546 177.32956962712478 L360.8094556128802 178.30121918359293 L362.4833570539049 179.2564350128776 L364.15725849492964 180.19565213298887 L365.83115993595436 181.1193101830841 L367.5050613769791 182.02784795957575 L369.17896281800387 182.921698238903 L370.8528642590286 183.80128292469198 L372.5267657000533 184.667008554718 L374.20066714107804 185.5192621997009 L375.87456858210277 186.35840778322068 L377.5484700231275 187.1847828489171 L379.2223714641522 187.99869579750413 L380.89627290517694 188.80042361303686 L382.57017434620167 189.59021009384247 L384.2440757872264 190.3682645999899 L385.9179772282511 191.13476132489734 L387.59187866927584 191.88983909453117 L389.26578011030057 192.6336016931415 L390.9396815513253 193.36611870972206 L392.61358299235 194.08742689456977 L394.28748443337474 194.79753201000193 L395.96138587439947 195.49641115432289 L397.63528731542425 196.18401553218476 L399.309188756449 196.86027363953957 L400.9830901974737 197.5250948252274 L402.6569916384984 198.17837318619792 L404.33089307952315 198.8199917473893 L406.0047945205479 199.44982687257294 L407.6786959615726 200.06775284700763 L409.3525974025973 200.67364656853505 L411.02649884362205 201.26739227947164 L412.7004002846468 201.84888626816647 L414.3743017256715 202.41804146657626 L416.0482031666962 202.9747918681158 L417.72210460772095 203.51909668905014 L419.3960060487457 204.05094419696093 L421.0699074897704 204.57035513090494 L422.7438089307951 205.0773856403052 L424.41771037181985 205.57212967313362 L426.09161181284463 206.05472074904756 L427.76551325386936 206.52533305935586 L429.4394146948941 206.9841818426969 L431.1133161359188 207.43152299465905 L432.78721757694353 207.86765187890876 L434.46111901796826 208.29290131828083 L436.135020458993 208.70763875634356 L437.8089219000177 209.11226259216772 L439.48282334104243 209.50719770427588 L441.15672478206716 209.8928901931848 L442.8306262230919 210.26980138554913 L444.5045276641166 210.63840115637683 L446.17842910514133 210.99916063899218 L447.85233054616606 211.35254440499304 L449.5262319871908 211.69900220801458 L451.2001334282155 212.03896039571114 L452.87403486924023 212.37281310376034 L454.547936310265 212.7009133530982 L456.22183775128974 213.0235641775911 L457.89573919231447 213.3410099133953 L459.5696406333392 213.6534277829682 L461.2435420743639 213.96091990674708 L462.91744351538864 214.2635058726503 L464.59134495641337 214.56111598931068 L466.2652463974381 214.85358534195544 L467.9391478384628 215.14064876087411 L469.61304927948754 215.42193680157752 L471.28695072051227 215.69697282328454 L472.96085216153693 215.96517123772122 L474.6347536025617 216.22583698498042 L476.3086550435865 216.47816627632287 L477.98255648461117 216.72124862618986 L479.6564579256359 216.95407017803092 L481.3303593666606 217.17551831004198 L483.0042608076854 217.38438748904034 L484.6781622487101 217.57938632321887 L486.3520636897348 217.75914574752136 L488.0259651307596 217.92222825952877 L489.69986657178436 218.06713810954196 L491.373768012809 218.1923323351383 L493.0476694538337 218.29623251946725 L494.7215708948585 218.377237142974 L496.39547233588326 218.4337343906328 L498.0693737769079 218.46411527183068 L499.7432752179326 218.4667869060229 L501.4171766589574 218.4401858266167 L503.09107809998216 218.38279115608023 L504.7649795410068 218.29313750810982 L506.43888098203155 218.16982747728412 L508.1127824230563 218.01154358309654 L509.78668386408106 217.81705954309797 L511.4605853051058 217.5852507593357 L513.1344867461305 217.31510391270135 L514.8083881871553 217.00572557156121 L516.4822896281801 216.6563497331415 L518.1561910692047 216.26634422939244 L519.8300925102294 215.8352159425384 L521.5039939512542 215.3626147886793 L523.177895392279 214.84833644220575 L524.8517968333036 214.29232378702537 L526.5256982743283 213.69466709386484 L528.1995997153531 213.05560293625115 L529.8735011563779 212.37551187009473 L531.5474025974025 211.65491491368175 L533.2213040384272 210.894468876176 L534.895205479452 210.09496059319036 L536.5691069204768 209.25730013782572 L538.2430083615014 208.38251308402985 L539.9169098025261 207.47173190742637 L541.5908112435509 206.5261866155616 L543.2647126845757 205.54719470540462 L544.9386141256003 204.5361505513629 L546.612515566625 203.49451433040602 L548.2864170076498 202.42380059457022 L549.9603184486746 201.32556660233388 L551.6342198896992 200.2014005217196 L553.3081213307239 199.05290961712495 L554.9820227717487 197.88170853097603 L556.6559242127735 196.6894077683705 L558.3298256537981 195.47760248947262 L560.0037270948228 194.2478617094776 L561.6776285358476 193.00171800030824 L563.3515299768724 191.74065778110037 L565.025431417897 190.46611227679136 L566.6993328589217 189.17944921519774 L568.3732342999465 187.88196532326867 L570.0471357409713 186.57487967289575 L571.7210371819959 185.25932791528624 L573.3949386230206 183.93635743179078 L575.0688400640454 182.60692341677958 L576.7427415050702 181.27188589627394 L578.4166429460948 179.93200767425634 L580.0905443871196 178.58795318635237 L581.7644458281444 177.24028822966483 L583.4383472691691 175.88948052662641 L585.1122487101939 174.53590107086205 L586.7861501512185 173.17982619439175 L588.4600515922433 171.82144028762985 L590.1339530332681 170.46083909771085 L591.8078544742928 169.09803352567928 L593.4817559153174 167.73295384017553 L595.1556573563422 166.3654542236436 L596.829558797367 164.99531756766834 L598.5034602383917 163.62226043587106 L600.1773616794163 162.24593811675845 L601.8512631204411 160.86594969409816 L603.5251645614659 159.48184306949605 L605.1990660024906 158.09311987977526 L606.8729674435152 156.69924026130553 L608.54686888454 155.2996274236064 L610.2207703255648 153.89367200507485 L611.8946717665895 152.4807361956984 L613.5685732076141 151.06015762182744 L615.2424746486389 149.63125300013013 L616.9163760896637 148.19332157769185 L618.5902775306884 146.7456483852975 L620.264178971713 145.28750733940285 L621.9380804127378 143.81816423557035 L623.6119818537626 142.3368796820052 L625.2858832947873 140.84291202576753 L626.9597847358119 139.3355203263299 L628.6336861768367 137.81396743175748 L630.3075876178615 136.2775232106378 L631.9814890588862 134.7254679897494 L633.6553904999109 133.15709624173633 L635.3292919409356 131.5717205600891 L637.0031933819604 129.96867595021132 L638.6770948229852 128.3473244550396 L640.3509962640098 126.70706012345937 L642.0248977050346 125.04731431725804 L643.6987991460594 123.36756134114148 L645.3727005870841 121.66732436743456 L647.0466020281087 119.94618161595457 L648.7205034691335 118.2037727375008 L650.3944049101583 116.43980533966334 L652.068306351183 114.6540615839989 L653.7422077922076 112.84640477602807 L655.4161092332324 111.01678586339244 L657.0900106742572 109.16524975317856 L658.7639121152819 107.29194135716159 L660.4378135563065 105.39711127331452 L662.1117149973313 103.4811210139049 L663.7856164383561 101.54444769391989 L665.4595178793808 99.58768809961884 L667.1334193204054 97.61156206424027 L668.8073207614302 95.61691508714352 L670.481222202455 93.60472014290127 L672.1551236434797 91.57607863877428 L673.8290250845043 89.53222049154232 L675.5029265255291 87.47450330732079 L677.1768279665539 85.40441066215135 L678.8507294075786 83.32354949386047 L680.5246308486032 81.23364662968953 L682.198532289628 79.13654448595645 L683.8724337306528 77.03419598898364 L685.5463351716775 74.92865877660614 L687.2202366127021 72.82208875001794 L688.8941380537269 70.71673305390908 L690.5680394947517 68.61492257006392 L692.2419409357764 66.51906401540481 L693.9158423768012 64.4316317392092 L695.5897438178259 62.355159317136895 L697.2636452588506 60.292231040620266 L698.9375466998754 58.24547339965102 L700.6114481409 56.21754665527726 L702.2853495819248 54.211136594918514 L703.9592510229496 52.228946559206065 L705.6331524639743 50.27368982331154 L707.307053904999 48.348082409730466 L708.9809553460237 46.45483640123399 L710.6548567870485 44.59665381533915 L712.3287582280732 42.776221092222215 L714.0026596690979 40.99620423841219 L715.6765611101226 39.259244659597016 L717.3504625511474 37.5679557043411 L719.0243639921721 35.924919931185684 L720.6982654331968 34.332687100349176 L722.3721668742215 32.79377288052217 L724.0460683152463 31.310658251086863 L725.719969756271 29.88578956896589 L727.3938711972957 28.5215792598961 L729.0677726383204 27.22040708294753 L730.7416740793452 25.98462190903831 L732.4155755203699 24.816543944475484 L734.0894769613946 23.71846732298252 L735.7633784024193 22.69266298253359 L737.4372798434441 21.741381737143058 L739.1111812844688 20.866857448800033 L740.7850827254935 20.071310201098697 L742.4589841665182 19.35694937374012 L744.132885607543 18.72597651624494 L745.8067870485677 18.18058791985652 L747.4806884895925 17.72297678909746 L749.1545899306171 17.355334918215306 L750.8284913716419 17.07985378331915 L752.5023928126667 16.898724968313502 L754.1762942536914 16.81413985135191 L755.8501956947161 16.828288488492205 L757.5240971357409 16.943357642735577 L759.1979985767656 17.16152791901851 L760.8719000177903 17.4849699788316 L762.545801458815 17.91583982241184 L764.2197028998398 18.456273140318103 L765.8936043408645 19.10837875079119 L767.5675057818892 19.874231153633502 L769.241407222914 20.755862244780587 L770.9153086639387 21.75525224885763 L772.5892101049634 22.87431993939913 L774.2631115459881 24.114912226527508 L775.9370129870128 25.478793202042255 L777.6109144280376 26.967632739471867 L779.2848158690623 28.582994752646016 L780.958717310087 30.32632522134611 L782.6326187511117 32.19894009479037 L784.3065201921365 34.20201318523988 L785.9804216331612 36.336564162942466 L787.6543230741859 38.60344676187759 L789.3282245152106 41.0033373020745 L791.0021259562354 43.53672362951335 L792.6760273972601 46.20389456928581 L794.3499288382848 49.00492998112384 L796.0238302793095 51.93969149954262 L797.6977317203343 55.0078140340687 L799.371633161359 58.208698097458864 L801.0455346023837 61.54150302333301 L802.7194360434085 65.00514112795923 L804.3933374844332 68.59827286444477 L806.0672389254579 72.3193030127677 L807.7411403664827 76.16637794353738 L809.4150418075075 80.13738398955758 L811.0889432485321 84.22994695526558 L812.7628446895569 88.44143279076667 L814.4367461305816 92.76894945475021 L816.1106475716064 97.20934998710095 L817.7845490126311 101.7592368094742 L819.4584504536558 106.41496726898646 L821.1323518946805 111.17266043603945 L822.8062533357053 116.02820516329763 L824.48015477673 120.97726940675602 L826.1540562177547 126.01531080367664 L827.8279576587794 131.13758849378155 L829.5018590998042 136.3391761607573 L831.175760540829 141.61497626026068 L832.8496619818536 146.95973538799046 L834.5235634228783 152.3680607281683 L836.1974648639031 157.83443750702605 L837.8713663049278 163.35324736100586 L839.5452677459525 168.9187875121366 L841.2191691869772 174.5252906266336 L842.893070628002 180.1669452162496 L844.5669720690267 185.83791642591552 L846.2408735100514 191.53236703649918 L847.9147749510761 197.24447849849062 L849.5886763921009 202.9684718016966 L851.2625778331256 208.69862797770492 L852.9364792741503 214.42930802711882 L854.610380715175 220.15497206211097 L856.2842821561998 225.87019745727167 L857.9581835972245 231.56969580863634 L859.6320850382492 237.24832851129895 L861.305986479274 242.9011207816763 L862.9798879202987 248.5232739695133 L864.6537893613234 254.11017602843825 L866.3276908023482 259.6574100406191 L868.0015922433729 265.1607607215305 L869.6754936843977 270.61621886350923 L871.3493951254225 276.0199837114923 L873.0232965664471 281.36846330040026 L874.6971980074718 286.65827281979995 L876.3710994484966 291.88623110729725 L878.0450008895214 297.0493554066123 L879.718902330546 302.14485455851036 L881.3928037715707 307.1701208217928 L883.0667052125955 312.12272054696246 L884.7406066536203 317.00038394606213 L886.4145080946449 321.80099421751686 L888.0884095356696 326.5225762952355 L889.7623109766944 331.163285495099 L891.4362124177192 335.72139633009687 L893.1101138587438 340.1952917572315 L894.7840152997685 344.5834531052457 L896.4579167407933 348.8844509123767 L898.1318181818181 353.09693687839064 L898.1318181818181 451.0 L896.4579167407933 451.0 L894.7840152997685 451.0 L893.1101138587438 451.0 L891.4362124177192 451.0 L889.7623109766944 451.0 L888.0884095356696 451.0 L886.4145080946449 451.0 L884.7406066536203 451.0 L883.0667052125955 451.0 L881.3928037715707 451.0 L879.718902330546 451.0 L878.0450008895214 451.0 L876.3710994484966 451.0 L874.6971980074718 451.0 L873.0232965664471 451.0 L871.3493951254225 451.0 L869.6754936843977 451.0 L868.0015922433729 451.0 L866.3276908023482 451.0 L864.6537893613234 451.0 L862.9798879202987 451.0 L861.305986479274 451.0 L859.6320850382492 451.0 L857.9581835972245 451.0 L856.2842821561998 451.0 L854.610380715175 451.0 L852.9364792741503 451.0 L851.2625778331256 451.0 L849.5886763921009 451.0 L847.9147749510761 451.0 L846.2408735100514 451.0 L844.5669720690267 451.0 L842.893070628002 451.0 L841.2191691869772 451.0 L839.5452677459525 451.0 L837.8713663049278 451.0 L836.1974648639031 451.0 L834.5235634228783 451.0 L832.8496619818536 451.0 L831.175760540829 451.0 L829.5018590998042 451.0 L827.8279576587794 451.0 L826.1540562177547 451.0 L824.48015477673 451.0 L822.8062533357053 451.0 L821.1323518946805 451.0 L819.4584504536558 451.0 L817.7845490126311 451.0 L816.1106475716064 451.0 L814.4367461305816 451.0 L812.7628446895569 451.0 L811.0889432485321 451.0 L809.4150418075075 451.0 L807.7411403664827 451.0 L806.0672389254579 451.0 L804.3933374844332 451.0 L802.7194360434085 451.0 L801.0455346023837 451.0 L799.371633161359 451.0 L797.6977317203343 451.0 L796.0238302793095 451.0 L794.3499288382848 451.0 L792.6760273972601 451.0 L791.0021259562354 451.0 L789.3282245152106 451.0 L787.6543230741859 451.0 L785.9804216331612 451.0 L784.3065201921365 451.0 L782.6326187511117 451.0 L780.958717310087 451.0 L779.2848158690623 451.0 L777.6109144280376 451.0 L775.9370129870128 451.0 L774.2631115459881 451.0 L772.5892101049634 451.0 L770.9153086639387 451.0 L769.241407222914 451.0 L767.5675057818892 451.0 L765.8936043408645 451.0 L764.2197028998398 451.0 L762.545801458815 451.0 L760.8719000177903 451.0 L759.1979985767656 451.0 L757.5240971357409 451.0 L755.8501956947161 451.0 L754.1762942536914 451.0 L752.5023928126667 451.0 L750.8284913716419 451.0 L749.1545899306171 451.0 L747.4806884895925 451.0 L745.8067870485677 451.0 L744.132885607543 451.0 L742.4589841665182 451.0 L740.7850827254935 451.0 L739.1111812844688 451.0 L737.4372798434441 451.0 L735.7633784024193 451.0 L734.0894769613946 451.0 L732.4155755203699 451.0 L730.7416740793452 451.0 L729.0677726383204 451.0 L727.3938711972957 451.0 L725.719969756271 451.0 L724.0460683152463 451.0 L722.3721668742215 451.0 L720.6982654331968 451.0 L719.0243639921721 451.0 L717.3504625511474 451.0 L715.6765611101226 451.0 L714.0026596690979 451.0 L712.3287582280732 451.0 L710.6548567870485 451.0 L708.9809553460237 451.0 L707.307053904999 451.0 L705.6331524639743 451.0 L703.9592510229496 451.0 L702.2853495819248 451.0 L700.6114481409 451.0 L698.9375466998754 451.0 L697.2636452588506 451.0 L695.5897438178259 451.0 L693.9158423768012 451.0 L692.2419409357764 451.0 L690.5680394947517 451.0 L688.8941380537269 451.0 L687.2202366127021 451.0 L685.5463351716775 451.0 L683.8724337306528 451.0 L682.198532289628 451.0 L680.5246308486032 451.0 L678.8507294075786 451.0 L677.1768279665539 451.0 L675.5029265255291 451.0 L673.8290250845043 451.0 L672.1551236434797 451.0 L670.481222202455 451.0 L668.8073207614302 451.0 L667.1334193204054 451.0 L665.4595178793808 451.0 L663.7856164383561 451.0 L662.1117149973313 451.0 L660.4378135563065 451.0 L658.7639121152819 451.0 L657.0900106742572 451.0 L655.4161092332324 451.0 L653.7422077922076 451.0 L652.068306351183 451.0 L650.3944049101583 451.0 L648.7205034691335 451.0 L647.0466020281087 451.0 L645.3727005870841 451.0 L643.6987991460594 451.0 L642.0248977050346 451.0 L640.3509962640098 451.0 L638.6770948229852 451.0 L637.0031933819604 451.0 L635.3292919409356 451.0 L633.6553904999109 451.0 L631.9814890588862 451.0 L630.3075876178615 451.0 L628.6336861768367 451.0 L626.9597847358119 451.0 L625.2858832947873 451.0 L623.6119818537626 451.0 L621.9380804127378 451.0 L620.264178971713 451.0 L618.5902775306884 451.0 L616.9163760896637 451.0 L615.2424746486389 451.0 L613.5685732076141 451.0 L611.8946717665895 451.0 L610.2207703255648 451.0 L608.54686888454 451.0 L606.8729674435152 451.0 L605.1990660024906 451.0 L603.5251645614659 451.0 L601.8512631204411 451.0 L600.1773616794163 451.0 L598.5034602383917 451.0 L596.829558797367 451.0 L595.1556573563422 451.0 L593.4817559153174 451.0 L591.8078544742928 451.0 L590.1339530332681 451.0 L588.4600515922433 451.0 L586.7861501512185 451.0 L585.1122487101939 451.0 L583.4383472691691 451.0 L581.7644458281444 451.0 L580.0905443871196 451.0 L578.4166429460948 451.0 L576.7427415050702 451.0 L575.0688400640454 451.0 L573.3949386230206 451.0 L571.7210371819959 451.0 L570.0471357409713 451.0 L568.3732342999465 451.0 L566.6993328589217 451.0 L565.025431417897 451.0 L563.3515299768724 451.0 L561.6776285358476 451.0 L560.0037270948228 451.0 L558.3298256537981 451.0 L556.6559242127735 451.0 L554.9820227717487 451.0 L553.3081213307239 451.0 L551.6342198896992 451.0 L549.9603184486746 451.0 L548.2864170076498 451.0 L546.612515566625 451.0 L544.9386141256003 451.0 L543.2647126845757 451.0 L541.5908112435509 451.0 L539.9169098025261 451.0 L538.2430083615014 451.0 L536.5691069204768 451.0 L534.895205479452 451.0 L533.2213040384272 451.0 L531.5474025974025 451.0 L529.8735011563779 451.0 L528.1995997153531 451.0 L526.5256982743283 451.0 L524.8517968333036 451.0 L523.177895392279 451.0 L521.5039939512542 451.0 L519.8300925102294 451.0 L518.1561910692047 451.0 L516.4822896281801 451.0 L514.8083881871553 451.0 L513.1344867461305 451.0 L511.4605853051058 451.0 L509.78668386408106 451.0 L508.1127824230563 451.0 L506.43888098203155 451.0 L504.7649795410068 451.0 L503.09107809998216 451.0 L501.4171766589574 451.0 L499.7432752179326 451.0 L498.0693737769079 451.0 L496.39547233588326 451.0 L494.7215708948585 451.0 L493.0476694538337 451.0 L491.373768012809 451.0 L489.69986657178436 451.0 L488.0259651307596 451.0 L486.3520636897348 451.0 L484.6781622487101 451.0 L483.0042608076854 451.0 L481.3303593666606 451.0 L479.6564579256359 451.0 L477.98255648461117 451.0 L476.3086550435865 451.0 L474.6347536025617 451.0 L472.96085216153693 451.0 L471.28695072051227 451.0 L469.61304927948754 451.0 L467.9391478384628 451.0 L466.2652463974381 451.0 L464.59134495641337 451.0 L462.91744351538864 451.0 L461.2435420743639 451.0 L459.5696406333392 451.0 L457.89573919231447 451.0 L456.22183775128974 451.0 L454.547936310265 451.0 L452.87403486924023 451.0 L451.2001334282155 451.0 L449.5262319871908 451.0 L447.85233054616606 451.0 L446.17842910514133 451.0 L444.5045276641166 451.0 L442.8306262230919 451.0 L441.15672478206716 451.0 L439.48282334104243 451.0 L437.8089219000177 451.0 L436.135020458993 451.0 L434.46111901796826 451.0 L432.78721757694353 451.0 L431.1133161359188 451.0 L429.4394146948941 451.0 L427.76551325386936 451.0 L426.09161181284463 451.0 L424.41771037181985 451.0 L422.7438089307951 451.0 L421.0699074897704 451.0 L419.3960060487457 451.0 L417.72210460772095 451.0 L416.0482031666962 451.0 L414.3743017256715 451.0 L412.7004002846468 451.0 L411.02649884362205 451.0 L409.3525974025973 451.0 L407.6786959615726 451.0 L406.0047945205479 451.0 L404.33089307952315 451.0 L402.6569916384984 451.0 L400.9830901974737 451.0 L399.309188756449 451.0 L397.63528731542425 451.0 L395.96138587439947 451.0 L394.28748443337474 451.0 L392.61358299235 451.0 L390.9396815513253 451.0 L389.26578011030057 451.0 L387.59187866927584 451.0 L385.9179772282511 451.0 L384.2440757872264 451.0 L382.57017434620167 451.0 L380.89627290517694 451.0 L379.2223714641522 451.0 L377.5484700231275 451.0 L375.87456858210277 451.0 L374.20066714107804 451.0 L372.5267657000533 451.0 L370.8528642590286 451.0 L369.17896281800387 451.0 L367.5050613769791 451.0 L365.83115993595436 451.0 L364.15725849492964 451.0 L362.4833570539049 451.0 L360.8094556128802 451.0 L359.13555417185546 451.0 L357.46165273083074 451.0 L355.787751289806 451.0 L354.1138498487813 451.0 L352.43994840775656 451.0 L350.76604696673184 451.0 L349.0921455257071 451.0 L347.4182440846824 451.0 L345.74434264365766 451.0 L344.07044120263294 451.0 L342.3965397616082 451.0 L340.7226383205835 451.0 L339.0487368795587 451.0 L337.374835438534 451.0 L335.70093399750925 451.0 L334.0270325564845 451.0 L332.3531311154598 451.0 L330.6792296744351 451.0 L329.00532823341035 451.0 L327.3314267923856 451.0 L325.6575253513609 451.0 L323.9836239103362 451.0 L322.30972246931145 451.0 L320.6358210282867 451.0 L318.961919587262 451.0 L317.2880181462373 451.0 L315.61411670521255 451.0 L313.9402152641878 451.0 L312.2663138231631 451.0 L310.5924123821383 451.0 L308.9185109411136 451.0 L307.24460950008887 451.0 L305.57070805906415 451.0 L303.8968066180394 451.0 L302.2229051770147 451.0 L300.54900373598997 451.0 L298.87510229496525 451.0 L297.2012008539405 451.0 L295.5272994129158 451.0 L293.85339797189107 451.0 L292.17949653086634 451.0 L290.5055950898416 451.0 L288.8316936488169 451.0 L287.15779220779217 451.0 L285.48389076676744 451.0 L283.8099893257427 451.0 L282.136087884718 451.0 L280.46218644369327 451.0 L278.78828500266854 451.0 L277.1143835616438 451.0 L275.44048212061904 451.0 L273.7665806795943 451.0 L272.0926792385696 451.0 L270.41877779754486 451.0 L268.74487635652014 451.0 L267.0709749154954 451.0 L265.3970734744707 451.0 L263.72317203344596 451.0 L262.04927059242124 451.0 L260.3753691513965 451.0 L258.7014677103718 451.0 L257.02756626934706 451.0 L255.35366482832234 451.0 L253.6797633872976 451.0 L252.0058619462729 451.0 L250.33196050524816 451.0 L248.65805906422344 451.0 L246.98415762319866 451.0 L245.31025618217393 451.0 L243.6363547411492 451.0 L241.96245330012448 451.0 L240.28855185909975 451.0 L238.61465041807503 451.0 L236.9407489770503 451.0 L235.26684753602558 451.0 L233.59294609500085 451.0 L231.91904465397613 451.0 L230.2451432129514 451.0 L228.57124177192668 451.0 L226.89734033090195 451.0 L225.22343888987723 451.0 L223.5495374488525 451.0 L221.87563600782778 451.0 L220.20173456680305 451.0 L218.52783312577827 451.0 L216.85393168475355 451.0 L215.18003024372882 451.0 L213.5061288027041 451.0 L211.83222736167937 451.0 L210.15832592065465 451.0 L208.48442447962992 451.0 L206.8105230386052 451.0 L205.13662159758047 451.0 L203.46272015655575 451.0 L201.78881871553102 451.0 L200.1149172745063 451.0 L198.44101583348157 451.0 L196.76711439245685 451.0 L195.09321295143212 451.0 L193.4193115104074 451.0 L191.74541006938267 451.0 L190.0715086283579 451.0 L188.39760718733316 451.0 L186.72370574630844 451.0 L185.04980430528371 451.0 L183.375902864259 451.0 L181.70200142323426 451.0 L180.02809998220954 451.0 L178.35419854118481 451.0 L176.6802971001601 451.0 L175.00639565913536 451.0 L173.33249421811064 451.0 L171.65859277708591 451.0 L169.9846913360612 451.0 L168.31078989503646 451.0 L166.6368884540117 451.0 L164.96298701298699 451.0 L163.28908557196226 451.0 L161.61518413093754 451.0 L159.9412826899128 451.0 L158.26738124888806 451.0 L156.59347980786333 451.0 L154.9195783668386 451.0 L153.24567692581388 451.0 L151.57177548478916 451.0 L149.89787404376443 451.0 L148.2239726027397 451.0 L146.55007116171498 451.0 L144.87616972069026 451.0 L143.20226827966553 451.0 L141.5283668386408 451.0 L139.85446539761608 451.0 L138.18056395659133 451.0 L136.5066625155666 451.0 L134.83276107454188 451.0 L133.15885963351715 451.0 L131.48495819249243 451.0 L129.81105675146767 451.0 L128.13715531044295 451.0 L126.46325386941824 451.0 L124.78935242839351 451.0 L123.11545098736877 451.0 L121.44154954634405 451.0 L119.76764810531932 451.0 L118.0937466642946 451.0 L116.41984522326986 451.0 L114.74594378224513 451.0 L113.07204234122041 451.0 L111.39814090019568 451.0 L109.72423945917095 451.0 L108.05033801814622 451.0 L106.3764365771215 451.0 L104.70253513609677 451.0 L103.02863369507205 451.0 L101.35473225404732 451.0 L99.68083081302258 451.0 L98.00692937199786 451.0 L96.33302793097312 451.0 L94.65912648994839 451.0 L92.98522504892367 451.0 L91.31132360789894 451.0 L89.63742216687422 451.0 L87.96352072584949 451.0 L86.28961928482475 451.0 L84.61571784380003 451.0 L82.94181640277529 451.0 L81.26791496175056 451.0 L79.59401352072584 451.0 L77.92011207970111 451.0 L76.24621063867639 451.0 L74.57230919765166 451.0 L72.89840775662692 451.0 L71.2245063156022 451.0 L69.55060487457747 451.0 L67.87670343355273 451.0 L66.20280199252801 451.0 L64.52890055150328 451.0 L62.85499911047856 451.0 L61.18109766945383 451.0 L59.507196228429095 451.0 L57.83329478740437 451.0 L56.159393346379645 451.0 L54.48549190535491 451.0 L52.81159046433019 451.0 L51.137689023305455 451.0 L49.46378758228073 451.0 L47.789886141256 451.0 L46.11598470023127 451.0 L44.44208325920654 451.0 L42.768181818181816 451.0 Z" fill="rgb(210,255,210)" stroke-width="1.0" fill-opacity="0.2980392156862745">
                    </path>
                </g>
                <g>
                    <path d="M42.768181818181816 351.5415813541139 L42.768181818181816 351.5415813541139 L44.44208325920654 347.70579291642036 L46.11598470023127 343.8227311079718 L47.789886141256 339.8950411899087 L49.46378758228073 335.92534803617673 L51.137689023305455 331.9162564457887 L52.81159046433019 327.8703530091543 L54.48549190535491 323.7902093479664 L56.159393346379645 319.67838651894374 L57.83329478740437 315.53744034841316 L59.507196228429095 311.3699274478331 L61.18109766945383 307.17841165023117 L62.85499911047856 302.9654706043974 L64.52890055150328 298.7337022671283 L66.20280199252801 294.48573104442346 L67.87670343355273 290.22421334874906 L69.55060487457747 285.95184236175044 L71.2245063156022 281.67135181889705 L72.89840775662692 277.38551866357216 L74.57230919765166 273.09716445238416 L76.24621063867639 268.8091554298568 L77.92011207970111 264.5244012281446 L79.59401352072584 260.245852184782 L81.26791496175056 255.97649530811938 L82.94181640277529 251.71934895465185 L84.61571784380003 247.47745631413326 L86.28961928482475 243.25387782670262 L87.96352072584949 239.05168268010505 L89.63742216687422 234.873939554497 L91.31132360789894 230.72370679626755 L92.98522504892367 226.60402221142795 L94.65912648994839 222.5178926725057 L96.33302793097312 218.4682837312016 L98.00692937199786 214.4581094224824 L99.68083081302258 210.49022243429758 L101.35473225404732 206.5674048018921 L103.02863369507205 202.69235926646797 L104.70253513609677 198.86770141614826 L106.3764365771215 195.0959527030925 L108.05033801814622 191.37953440507647 L109.72423945917095 187.72076257341513 L111.39814090019568 184.12184398303214 L113.07204234122041 180.5848730749114 L114.74594378224513 177.11182985673616 L116.41984522326986 173.704578705767 L118.0937466642946 170.36486799774764 L119.76764810531932 167.0943304691953 L121.44154954634405 163.89448420646704 L123.11545098736877 160.76673414506718 L124.78935242839351 157.71237395584353 L126.46325386941824 154.73258819181416 L128.13715531044295 151.82845457005095 L129.81105675146767 149.00094626678464 L131.48495819249243 146.25093411147708 L133.15885963351715 143.57918857535537 L134.83276107454188 140.9863814628352 L136.5066625155666 138.47308722918746 L138.18056395659133 136.0397838641797 L139.85446539761608 133.68685329955912 L141.5283668386408 131.41458131707265 L143.20226827966553 129.22315695266718 L144.87616972069026 127.11267141189961 L146.55007116171498 125.08311652972242 L148.2239726027397 123.13438282606842 L149.89787404376443 121.26625722455987 L151.57177548478916 119.47842051660251 L153.24567692581388 117.77044466606407 L154.9195783668386 116.14179006023801 L156.59347980786333 114.59180282131229 L158.26738124888806 113.11971229833426 L159.9412826899128 111.72462886291072 L161.61518413093754 110.4055421325566 L163.28908557196226 109.1613197437344 L164.96298701298699 107.99070679184126 L166.6368884540117 106.89232604867351 L168.31078989503646 105.86467905836605 L169.9846913360612 104.90614820143736 L171.65859277708591 104.01499980302214 L173.33249421811064 103.18938834624572 L175.00639565913536 102.42736183526904 L176.6802971001601 101.72686833412581 L178.35419854118481 101.08576368961894 L180.02809998220954 100.50182042652017 L181.70200142323426 99.97273778393969 L183.375902864259 99.49615284247534 L185.04980430528371 99.06965267195795 L186.72370574630844 98.69078741147513 L188.39760718733316 98.35708417542025 L190.0715086283579 98.06606166294006 L191.74541006938267 97.81524533319441 L193.4193115104074 97.60218299546989 L195.09321295143212 97.42446065195298 L196.76711439245685 97.27971842172843 L198.44101583348157 97.16566636793357 L200.1149172745063 97.08010004521077 L201.78881871553102 97.0209155831605 L203.46272015655575 96.98612412217244 L205.13662159758047 96.9738654215439 L206.8105230386052 96.98242046597954 L208.48442447962992 97.01022290546132 L210.15832592065465 97.05586917490018 L211.83222736167937 97.11812715369996 L213.5061288027041 97.1959432417367 L215.18003024372882 97.28844774617266 L216.85393168475355 97.39495849372088 L218.52783312577827 97.5149826044867 L220.20173456680305 97.64821638656429 L221.87563600782778 97.79454333358626 L223.5495374488525 97.95403023271615 L225.22343888987723 98.126921413952 L226.89734033090195 98.31363119668964 L228.57124177192668 98.51473461219143 L230.2451432129514 98.7309565039335 L231.91904465397613 98.96315912848587 L233.59294609500085 99.21232839893156 L235.26684753602558 99.47955893070707 L236.9407489770503 99.76603806395502 L238.61465041807503 100.0730290492761 L240.28855185909975 100.40185359340762 L241.96245330012448 100.75387396726711 L243.6363547411492 101.13047488305375 L245.31025618217393 101.53304534672299 L246.98415762319866 101.96296069005132 L248.65805906422344 102.42156498046552 L250.33196050524816 102.91015399850716 L252.0058619462729 103.42995896143896 L253.6797633872976 103.98213115827366 L255.35366482832234 104.56772764576914 L257.02756626934706 105.1876981374516 L258.7014677103718 105.84287319937454 L260.3753691513965 106.53395384618716 L262.04927059242124 107.26150261088293 L263.72317203344596 108.0259361410616 L265.3970734744707 108.82751935372693 L267.0709749154954 109.66636116108674 L268.74487635652014 110.54241175991177 L270.41877779754486 111.45546145966159 L272.0926792385696 112.40514100698914 L273.7665806795943 113.39092334969348 L275.44048212061904 114.41212676896913 L277.1143835616438 115.46791929766562 L278.78828500266854 116.55732433204133 L280.46218644369327 117.67922733653745 L282.136087884718 118.83238353529111 L283.8099893257427 120.01542647950146 L285.48389076676744 121.22687737750374 L287.15779220779217 122.46515507300876 L288.8316936488169 123.72858655778634 L290.5055950898416 125.01541790651135 L292.17949653086634 126.32382552435354 L293.85339797189107 127.65192760154974 L295.5272994129158 128.99779567367216 L297.2012008539405 130.3594661912535 L298.87510229496525 131.73495200785413 L300.54900373598997 133.12225370157734 L302.2229051770147 134.5193706505354 L303.8968066180394 135.92431178935527 L305.57070805906415 137.33510597908383 L307.24460950008887 138.74981192964526 L308.9185109411136 140.16652761900104 L310.5924123821383 141.58339915978382 L312.2663138231631 142.9986290691421 L313.9402152641878 144.41048390355917 L315.61411670521255 145.81730122567484 L317.2880181462373 147.21749587551398 L318.961919587262 148.6095655240606 L320.6358210282867 149.99209549201396 L322.30972246931145 151.36376282235767 L323.9836239103362 152.72333960000418 L325.6575253513609 154.06969551740667 L327.3314267923856 155.40179968996267 L329.00532823341035 156.71872173009524 L330.6792296744351 158.01963209399247 L332.3531311154598 159.30380171984126 L334.0270325564845 160.57060098087436 L335.70093399750925 161.8194979815417 L337.374835438534 163.05005622862262 L339.0487368795587 164.26193171404395 L340.7226383205835 165.45486944878138 L342.3965397616082 166.62869949128793 L344.07044120263294 167.78333251633615 L345.74434264365766 168.91875497269768 L347.4182440846824 170.0350238801896 L349.0921455257071 171.13226131790526 L350.76604696673184 172.2106486568669 L352.43994840775656 173.2704205905847 L354.1138498487813 174.3118590175564 L355.787751289806 175.33528682924037 L357.46165273083074 176.34106165657766 L359.13555417185546 177.32956962712478 L360.8094556128802 178.30121918359293 L362.4833570539049 179.2564350128776 L364.15725849492964 180.19565213298887 L365.83115993595436 181.1193101830841 L367.5050613769791 182.02784795957575 L369.17896281800387 182.921698238903 L370.8528642590286 183.80128292469198 L372.5267657000533 184.667008554718 L374.20066714107804 185.5192621997009 L375.87456858210277 186.35840778322068 L377.5484700231275 187.1847828489171 L379.2223714641522 187.99869579750413 L380.89627290517694 188.80042361303686 L382.57017434620167 189.59021009384247 L384.2440757872264 190.3682645999899 L385.9179772282511 191.13476132489734 L387.59187866927584 191.88983909453117 L389.26578011030057 192.6336016931415 L390.9396815513253 193.36611870972206 L392.61358299235 194.08742689456977 L394.28748443337474 194.79753201000193 L395.96138587439947 195.49641115432289 L397.63528731542425 196.18401553218476 L399.309188756449 196.86027363953957 L400.9830901974737 197.5250948252274 L402.6569916384984 198.17837318619792 L404.33089307952315 198.8199917473893 L406.0047945205479 199.44982687257294 L407.6786959615726 200.06775284700763 L409.3525974025973 200.67364656853505 L411.02649884362205 201.26739227947164 L412.7004002846468 201.84888626816647 L414.3743017256715 202.41804146657626 L416.0482031666962 202.9747918681158 L417.72210460772095 203.51909668905014 L419.3960060487457 204.05094419696093 L421.0699074897704 204.57035513090494 L422.7438089307951 205.0773856403052 L424.41771037181985 205.57212967313362 L426.09161181284463 206.05472074904756 L427.76551325386936 206.52533305935586 L429.4394146948941 206.9841818426969 L431.1133161359188 207.43152299465905 L432.78721757694353 207.86765187890876 L434.46111901796826 208.29290131828083 L436.135020458993 208.70763875634356 L437.8089219000177 209.11226259216772 L439.48282334104243 209.50719770427588 L441.15672478206716 209.8928901931848 L442.8306262230919 210.26980138554913 L444.5045276641166 210.63840115637683 L446.17842910514133 210.99916063899218 L447.85233054616606 211.35254440499304 L449.5262319871908 211.69900220801458 L451.2001334282155 212.03896039571114 L452.87403486924023 212.37281310376034 L454.547936310265 212.7009133530982 L456.22183775128974 213.0235641775911 L457.89573919231447 213.3410099133953 L459.5696406333392 213.6534277829682 L461.2435420743639 213.96091990674708 L462.91744351538864 214.2635058726503 L464.59134495641337 214.56111598931068 L466.2652463974381 214.85358534195544 L467.9391478384628 215.14064876087411 L469.61304927948754 215.42193680157752 L471.28695072051227 215.69697282328454 L472.96085216153693 215.96517123772122 L474.6347536025617 216.22583698498042 L476.3086550435865 216.47816627632287 L477.98255648461117 216.72124862618986 L479.6564579256359 216.95407017803092 L481.3303593666606 217.17551831004198 L483.0042608076854 217.38438748904034 L484.6781622487101 217.57938632321887 L486.3520636897348 217.75914574752136 L488.0259651307596 217.92222825952877 L489.69986657178436 218.06713810954196 L491.373768012809 218.1923323351383 L493.0476694538337 218.29623251946725 L494.7215708948585 218.377237142974 L496.39547233588326 218.4337343906328 L498.0693737769079 218.46411527183068 L499.7432752179326 218.4667869060229 L501.4171766589574 218.4401858266167 L503.09107809998216 218.38279115608023 L504.7649795410068 218.29313750810982 L506.43888098203155 218.16982747728412 L508.1127824230563 218.01154358309654 L509.78668386408106 217.81705954309797 L511.4605853051058 217.5852507593357 L513.1344867461305 217.31510391270135 L514.8083881871553 217.00572557156121 L516.4822896281801 216.6563497331415 L518.1561910692047 216.26634422939244 L519.8300925102294 215.8352159425384 L521.5039939512542 215.3626147886793 L523.177895392279 214.84833644220575 L524.8517968333036 214.29232378702537 L526.5256982743283 213.69466709386484 L528.1995997153531 213.05560293625115 L529.8735011563779 212.37551187009473 L531.5474025974025 211.65491491368175 L533.2213040384272 210.894468876176 L534.895205479452 210.09496059319036 L536.5691069204768 209.25730013782572 L538.2430083615014 208.38251308402985 L539.9169098025261 207.47173190742637 L541.5908112435509 206.5261866155616 L543.2647126845757 205.54719470540462 L544.9386141256003 204.5361505513629 L546.612515566625 203.49451433040602 L548.2864170076498 202.42380059457022 L549.9603184486746 201.32556660233388 L551.6342198896992 200.2014005217196 L553.3081213307239 199.05290961712495 L554.9820227717487 197.88170853097603 L556.6559242127735 196.6894077683705 L558.3298256537981 195.47760248947262 L560.0037270948228 194.2478617094776 L561.6776285358476 193.00171800030824 L563.3515299768724 191.74065778110037 L565.025431417897 190.46611227679136 L566.6993328589217 189.17944921519774 L568.3732342999465 187.88196532326867 L570.0471357409713 186.57487967289575 L571.7210371819959 185.25932791528624 L573.3949386230206 183.93635743179078 L575.0688400640454 182.60692341677958 L576.7427415050702 181.27188589627394 L578.4166429460948 179.93200767425634 L580.0905443871196 178.58795318635237 L581.7644458281444 177.24028822966483 L583.4383472691691 175.88948052662641 L585.1122487101939 174.53590107086205 L586.7861501512185 173.17982619439175 L588.4600515922433 171.82144028762985 L590.1339530332681 170.46083909771085 L591.8078544742928 169.09803352567928 L593.4817559153174 167.73295384017553 L595.1556573563422 166.3654542236436 L596.829558797367 164.99531756766834 L598.5034602383917 163.62226043587106 L600.1773616794163 162.24593811675845 L601.8512631204411 160.86594969409816 L603.5251645614659 159.48184306949605 L605.1990660024906 158.09311987977526 L606.8729674435152 156.69924026130553 L608.54686888454 155.2996274236064 L610.2207703255648 153.89367200507485 L611.8946717665895 152.4807361956984 L613.5685732076141 151.06015762182744 L615.2424746486389 149.63125300013013 L616.9163760896637 148.19332157769185 L618.5902775306884 146.7456483852975 L620.264178971713 145.28750733940285 L621.9380804127378 143.81816423557035 L623.6119818537626 142.3368796820052 L625.2858832947873 140.84291202576753 L626.9597847358119 139.3355203263299 L628.6336861768367 137.81396743175748 L630.3075876178615 136.2775232106378 L631.9814890588862 134.7254679897494 L633.6553904999109 133.15709624173633 L635.3292919409356 131.5717205600891 L637.0031933819604 129.96867595021132 L638.6770948229852 128.3473244550396 L640.3509962640098 126.70706012345937 L642.0248977050346 125.04731431725804 L643.6987991460594 123.36756134114148 L645.3727005870841 121.66732436743456 L647.0466020281087 119.94618161595457 L648.7205034691335 118.2037727375008 L650.3944049101583 116.43980533966334 L652.068306351183 114.6540615839989 L653.7422077922076 112.84640477602807 L655.4161092332324 111.01678586339244 L657.0900106742572 109.16524975317856 L658.7639121152819 107.29194135716159 L660.4378135563065 105.39711127331452 L662.1117149973313 103.4811210139049 L663.7856164383561 101.54444769391989 L665.4595178793808 99.58768809961884 L667.1334193204054 97.61156206424027 L668.8073207614302 95.61691508714352 L670.481222202455 93.60472014290127 L672.1551236434797 91.57607863877428 L673.8290250845043 89.53222049154232 L675.5029265255291 87.47450330732079 L677.1768279665539 85.40441066215135 L678.8507294075786 83.32354949386047 L680.5246308486032 81.23364662968953 L682.198532289628 79.13654448595645 L683.8724337306528 77.03419598898364 L685.5463351716775 74.92865877660614 L687.2202366127021 72.82208875001794 L688.8941380537269 70.71673305390908 L690.5680394947517 68.61492257006392 L692.2419409357764 66.51906401540481 L693.9158423768012 64.4316317392092 L695.5897438178259 62.355159317136895 L697.2636452588506 60.292231040620266 L698.9375466998754 58.24547339965102 L700.6114481409 56.21754665527726 L702.2853495819248 54.211136594918514 L703.9592510229496 52.228946559206065 L705.6331524639743 50.27368982331154 L707.307053904999 48.348082409730466 L708.9809553460237 46.45483640123399 L710.6548567870485 44.59665381533915 L712.3287582280732 42.776221092222215 L714.0026596690979 40.99620423841219 L715.6765611101226 39.259244659597016 L717.3504625511474 37.5679557043411 L719.0243639921721 35.924919931185684 L720.6982654331968 34.332687100349176 L722.3721668742215 32.79377288052217 L724.0460683152463 31.310658251086863 L725.719969756271 29.88578956896589 L727.3938711972957 28.5215792598961 L729.0677726383204 27.22040708294753 L730.7416740793452 25.98462190903831 L732.4155755203699 24.816543944475484 L734.0894769613946 23.71846732298252 L735.7633784024193 22.69266298253359 L737.4372798434441 21.741381737143058 L739.1111812844688 20.866857448800033 L740.7850827254935 20.071310201098697 L742.4589841665182 19.35694937374012 L744.132885607543 18.72597651624494 L745.8067870485677 18.18058791985652 L747.4806884895925 17.72297678909746 L749.1545899306171 17.355334918215306 L750.8284913716419 17.07985378331915 L752.5023928126667 16.898724968313502 L754.1762942536914 16.81413985135191 L755.8501956947161 16.828288488492205 L757.5240971357409 16.943357642735577 L759.1979985767656 17.16152791901851 L760.8719000177903 17.4849699788316 L762.545801458815 17.91583982241184 L764.2197028998398 18.456273140318103 L765.8936043408645 19.10837875079119 L767.5675057818892 19.874231153633502 L769.241407222914 20.755862244780587 L770.9153086639387 21.75525224885763 L772.5892101049634 22.87431993939913 L774.2631115459881 24.114912226527508 L775.9370129870128 25.478793202042255 L777.6109144280376 26.967632739471867 L779.2848158690623 28.582994752646016 L780.958717310087 30.32632522134611 L782.6326187511117 32.19894009479037 L784.3065201921365 34.20201318523988 L785.9804216331612 36.336564162942466 L787.6543230741859 38.60344676187759 L789.3282245152106 41.0033373020745 L791.0021259562354 43.53672362951335 L792.6760273972601 46.20389456928581 L794.3499288382848 49.00492998112384 L796.0238302793095 51.93969149954262 L797.6977317203343 55.0078140340687 L799.371633161359 58.208698097458864 L801.0455346023837 61.54150302333301 L802.7194360434085 65.00514112795923 L804.3933374844332 68.59827286444477 L806.0672389254579 72.3193030127677 L807.7411403664827 76.16637794353738 L809.4150418075075 80.13738398955758 L811.0889432485321 84.22994695526558 L812.7628446895569 88.44143279076667 L814.4367461305816 92.76894945475021 L816.1106475716064 97.20934998710095 L817.7845490126311 101.7592368094742 L819.4584504536558 106.41496726898646 L821.1323518946805 111.17266043603945 L822.8062533357053 116.02820516329763 L824.48015477673 120.97726940675602 L826.1540562177547 126.01531080367664 L827.8279576587794 131.13758849378155 L829.5018590998042 136.3391761607573 L831.175760540829 141.61497626026068 L832.8496619818536 146.95973538799046 L834.5235634228783 152.3680607281683 L836.1974648639031 157.83443750702605 L837.8713663049278 163.35324736100586 L839.5452677459525 168.9187875121366 L841.2191691869772 174.5252906266336 L842.893070628002 180.1669452162496 L844.5669720690267 185.83791642591552 L846.2408735100514 191.53236703649918 L847.9147749510761 197.24447849849062 L849.5886763921009 202.9684718016966 L851.2625778331256 208.69862797770492 L852.9364792741503 214.42930802711882 L854.610380715175 220.15497206211097 L856.2842821561998 225.87019745727167 L857.9581835972245 231.56969580863634 L859.6320850382492 237.24832851129895 L861.305986479274 242.9011207816763 L862.9798879202987 248.5232739695133 L864.6537893613234 254.11017602843825 L866.3276908023482 259.6574100406191 L868.0015922433729 265.1607607215305 L869.6754936843977 270.61621886350923 L871.3493951254225 276.0199837114923 L873.0232965664471 281.36846330040026 L874.6971980074718 286.65827281979995 L876.3710994484966 291.88623110729725 L878.0450008895214 297.0493554066123 L879.718902330546 302.14485455851036 L881.3928037715707 307.1701208217928 L883.0667052125955 312.12272054696246 L884.7406066536203 317.00038394606213 L886.4145080946449 321.80099421751686 L888.0884095356696 326.5225762952355 L889.7623109766944 331.163285495099 L891.4362124177192 335.72139633009687 L893.1101138587438 340.1952917572315 L894.7840152997685 344.5834531052457 L896.4579167407933 348.8844509123767 L898.1318181818181 353.09693687839064 " fill="none" stroke-width="1.0" stroke="rgb(0,128,0)" stroke-opacity="1.0">
                    </path>
                </g>
            </g>
        </g>
        <g class="plt-axis">
            <g transform="translate(4.0 235.5 ) rotate(-90.0 ) " class="plt-axis-title">
                <text text-anchor="middle" dy="0.7em">
                    density
                </text>
            </g>
        </g>
        <g class="plt-axis">
            <g transform="translate(519.55 496.0 ) " class="plt-axis-title">
                <text text-anchor="middle">
                    x
                </text>
            </g>
        </g>
    </g>
</svg>